:SAMPLES-PER-SECOND 30
:FRAME-RANGE 1-2091
:FULLY-SPECIFIED
:DEGREES
1242
root  48.6121 38.5056 -5.08683 173.663 58.5313 177.662
RightUpLeg  -14.3194 -3.09927 0.555634
RightLeg  0.906764 -22.0981 4.19049
RightFoot  2.89927 -0.387335 3.25784
RightToes  5.82063e-011 0 -3.6325e-017
Spine  3.1175 -1.82673 -2.92407
Spine1  3.4857 -2.57159 2.47657
HEad  -3.87185 66.7383 -10.9289
LeftShoulder1  2.00251 -2.88133 -25.1867
LeftArm  38.8896 -46.773 -75.3498
LeftForeArm  11.4948 -10.3002 -15.1814
LeftHand  -0.0651616 -0.0773395 1.40505
RightShoulder  10.6389 14.6403 51.3148
RightArm  15.6596 3.25066 17.8763
RightForeArm  20.131 2.47309 16.7162
RightHand  0.312863 2.79784 4.22105
LeftUpLeg  15.574 10.2461 -2.94453
LeftLeg  12.6901 -1.51001 -2.84381
LeftFoot  -20.0056 0.155336 0.465762
LeftToes  -6.27584e-011 -2.25241e-010 2.80627e-011
1243
root  49.8171 38.5757 -5.79617 176.337 59.1851 -178.966
RightUpLeg  -14.9302 -2.03143 2.99447
RightLeg  5.2654 -21.9071 2.40368
RightFoot  7.14896 1.04752 -6.12401
RightToes  5.82063e-011 0 -3.6325e-017
Spine  3.29015 -1.80769 0.671196
Spine1  3.48724 -2.46968 2.25421
HEad  -3.29599 67.3396 -11.4046
LeftShoulder1  2.0443 -2.83089 -26.1332
LeftArm  39.9724 -45.7742 -76.9072
LeftForeArm  11.9809 -10.5768 -15.0095
LeftHand  -0.0867076 -0.430078 1.78992
RightShoulder  10.7304 14.6308 51.7735
RightArm  18.6521 3.54187 18.2693
RightForeArm  16.9295 5.25048 16.1648
RightHand  0.282057 2.71165 3.83191
LeftUpLeg  17.7847 13.1028 0.408719
LeftLeg  13.8011 -4.75666 -2.44872
LeftFoot  -19.4892 -0.0782077 -2.7384
LeftToes  -6.27584e-011 -2.25241e-010 2.80627e-011
1244
root  51.0716 38.5079 -6.5012 179.633 60.7927 -175.267
RightUpLeg  -15.7258 -2.76655 5.9998
RightLeg  11.5242 -19.396 -0.488894
RightFoot  3.94603 0.75461 -5.41395
RightToes  5.82063e-011 0 -3.6325e-017
Spine  3.19007 -1.58187 4.65589
Spine1  3.25098 -1.7671 1.05468
HEad  -1.74334 68.0067 -11.2922
LeftShoulder1  2.04771 -2.70081 -26.8903
LeftArm  37.6079 -43.9543 -76.7222
LeftForeArm  13.6322 -9.36905 -15.5778
LeftHand  -0.115036 -0.587712 2.31273
RightShoulder  11.0883 15.0399 52.3032
RightArm  19.7546 3.93432 18.5251
RightForeArm  15.9139 6.18242 15.9235
RightHand  0.265697 2.85241 3.52478
LeftUpLeg  16.9765 16.8239 4.2627
LeftLeg  20.8433 -7.7077 -2.90388
LeftFoot  -18.6239 -0.331415 -6.95391
LeftToes  -6.27584e-011 -2.25241e-010 2.80627e-011
1245
root  52.215 38.4697 -7.03949 -178.105 61.7431 -172.918
RightUpLeg  -15.4787 -4.53629 7.58284
RightLeg  14.8564 -16.8757 -0.894332
RightFoot  1.21718 0.61324 -5.4893
RightToes  5.82063e-011 0 -3.6325e-017
Spine  3.50034 -1.5492 5.9532
Spine1  3.13365 -1.63879 2.11281
HEad  0.112775 68.151 -10.5476
LeftShoulder1  1.98727 -2.48422 -27.0788
LeftArm  33.3865 -41.6022 -75.3466
LeftForeArm  15.8687 -7.17086 -16.4497
LeftHand  -0.105718 -0.526297 2.14641
RightShoulder  11.6217 15.9488 52.2512
RightArm  19.4092 4.11248 19.1364
RightForeArm  16.3852 6.29229 15.7859
RightHand  0.307528 2.90751 4.08183
LeftUpLeg  12.828 16.5484 6.34967
LeftLeg  31.51 -7.13398 -4.35449
LeftFoot  -13.1899 -0.136146 -13.2698
LeftToes  -6.27584e-011 -2.25241e-010 2.80627e-011
1246
root  53.2558 38.3574 -7.47497 -175.704 61.2683 -170.588
RightUpLeg  -15.5548 -4.18437 8.71239
RightLeg  18.105 -17.5944 -1.69768
RightFoot  -1.61884 0.47208 -5.67056
RightToes  5.82063e-011 0 -3.6325e-017
Spine  3.6208 -1.84768 7.0599
Spine1  3.43507 -1.81022 3.47035
HEad  2.52643 66.2367 -8.17435
LeftShoulder1  1.95309 -2.42614 -26.8185
LeftArm  31.1365 -39.5626 -73.8319
LeftForeArm  16.0724 -4.46569 -17.5305
LeftHand  -0.0549257 -0.522202 1.14272
RightShoulder  11.9088 16.3563 52.434
RightArm  20.4072 4.36372 19.4656
RightForeArm  15.617 7.37669 15.3683
RightHand  0.332827 2.93311 4.41975
LeftUpLeg  6.01486 13.0439 7.42316
LeftLeg  43.776 -5.98514 -5.72414
LeftFoot  -3.21825 1.26426 -17.42
LeftToes  -6.27584e-011 -2.25241e-010 2.80627e-011
1247
root  54.1831 38.1247 -7.89572 -173.359 60.6979 -167.858
RightUpLeg  -15.6434 -3.8359 10.174
RightLeg  21.9351 -18.2484 -3.07066
RightFoot  -4.76039 0.253153 -4.95702
RightToes  5.82063e-011 0 -3.6325e-017
Spine  4.33267 -2.05005 9.69994
Spine1  3.58089 -1.38572 3.45881
HEad  4.88553 61.8601 -5.5001
LeftShoulder1  1.97648 -2.43439 -27.1784
LeftArm  32.8916 -37.9516 -71.5187
LeftForeArm  12.1579 -2.33464 -18.6316
LeftHand  0.0241148 -0.521033 -0.421121
RightShoulder  11.9173 16.2033 52.8671
RightArm  24.4985 4.40121 19.5493
RightForeArm  11.7702 9.75935 14.5673
RightHand  0.320606 2.86107 4.29241
LeftUpLeg  -1.0077 9.53589 8.9981
LeftLeg  54.9797 -5.71611 -8.24167
LeftFoot  8.47066 3.12984 -18.0908
LeftToes  -6.27584e-011 -2.25241e-010 2.80627e-011
1248
root  55.1717 38.0933 -8.39356 -172.813 61.4598 -166.66
RightUpLeg  -13.9775 -3.41489 10.8033
RightLeg  23.7189 -17.7603 -3.69542
RightFoot  -7.16129 0.108643 -4.29947
RightToes  5.82063e-011 0 -3.6325e-017
Spine  5.18365 -1.80443 11.9322
Spine1  3.58148 -0.331193 2.13753
HEad  7.81685 56.1301 -2.94816
LeftShoulder1  1.99408 -2.30787 -28.2344
LeftArm  33.3086 -35.8426 -67.2956
LeftForeArm  7.73376 -2.01445 -19.136
LeftHand  0.0883267 -0.0879985 -1.878
RightShoulder  12.0457 16.2609 53.2668
RightArm  25.8962 4.70028 19.6599
RightForeArm  11.1345 10.3023 14.3694
RightHand  0.301723 2.90224 4.00365
LeftUpLeg  -5.90759 7.45745 9.68178
LeftLeg  62.6023 -4.2729 -8.334
LeftFoot  8.05359 2.82127 -16.6983
LeftToes  -6.27584e-011 -2.25241e-010 2.80627e-011
1249
root  56.257 38.2389 -8.94091 -174.113 63.047 -167.73
RightUpLeg  -11.5315 -3.05141 10.4005
RightLeg  24.0383 -16.6267 -4.0283
RightFoot  -9.06107 0.014224 -3.78927
RightToes  5.82063e-011 0 -3.6325e-017
Spine  5.4667 -1.41213 12.4292
Spine1  3.48858 0.551375 0.729822
HEad  10.6999 50.1067 -1.11925
LeftShoulder1  1.96633 -2.02642 -29.5031
LeftArm  27.9644 -32.4049 -60.7967
LeftForeArm  6.30593 -1.50999 -19.2333
LeftHand  0.105034 0.445451 -2.55024
RightShoulder  12.4417 16.8286 53.4689
RightArm  27.4518 4.94674 19.9775
RightForeArm  11.2592 10.1525 14.5574
RightHand  0.269302 2.882 3.56038
LeftUpLeg  -10.2384 6.16517 9.11847
LeftLeg  66.7622 -2.55147 -5.83945
LeftFoot  5.76341 2.06217 -13.8912
LeftToes  -6.27584e-011 -2.25241e-010 2.80627e-011
1250
root  57.3553 38.4228 -9.51043 -175.857 64.9654 -169.541
RightUpLeg  -8.93108 -3.20629 9.44594
RightLeg  23.5484 -14.7155 -3.63603
RightFoot  -10.7543 -0.0550964 -3.43099
RightToes  5.82063e-011 0 -3.6325e-017
Spine  5.48369 -1.034 12.5205
Spine1  3.20661 1.2543 -0.715774
HEad  12.8728 44.9729 -0.525971
LeftShoulder1  1.90251 -1.6591 -30.8101
LeftArm  20.409 -27.443 -53.3659
LeftForeArm  6.63326 -0.110263 -19.2303
LeftHand  0.111636 0.66442 -2.86478
RightShoulder  12.736 17.3667 53.3218
RightArm  28.3979 5.30755 20.547
RightForeArm  12.6717 9.51881 14.9214
RightHand  0.270767 3.00443 3.51902
LeftUpLeg  -14.1301 5.25273 8.20951
LeftLeg  67.701 -1.15488 -2.38937
LeftFoot  4.77389 1.51712 -10.8973
LeftToes  -6.27584e-011 -2.25241e-010 2.80627e-011
1251
root  58.4656 38.6406 -10.0781 -177.994 67.4157 -171.964
RightUpLeg  -6.16171 -3.7474 8.05166
RightLeg  22.2848 -11.8727 -2.64728
RightFoot  -12.0976 -0.103235 -3.25335
RightToes  5.82063e-011 0 -3.6325e-017
Spine  5.53692 -0.466905 12.269
Spine1  2.66764 1.99584 -2.208
HEad  14.8319 40.4085 -0.389471
LeftShoulder1  1.84951 -1.32978 -32.2269
LeftArm  16.4511 -20.9488 -45.6604
LeftForeArm  4.56772 0.667546 -19.2837
LeftHand  0.11443 0.949672 -3.01466
RightShoulder  12.7687 17.54 53.0268
RightArm  31.0438 5.443 21.1106
RightForeArm  12.1317 10.0792 14.7536
RightHand  0.301204 2.99183 3.94655
LeftUpLeg  -17.3279 5.10864 7.19101
LeftLeg  65.7393 -0.172895 0.246865
LeftFoot  2.55177 0.951426 -7.92835
LeftToes  -6.27584e-011 -2.25241e-010 2.80627e-011
1252
root  59.5855 38.856 -10.6225 179.794 70.4726 -174.588
RightUpLeg  -3.4669 -4.11214 6.72094
RightLeg  20.7439 -8.7205 -1.88735
RightFoot  -13.0571 -0.136522 -3.22317
RightToes  5.82063e-011 0 -3.6325e-017
Spine  5.53788 0.32024 12.0632
Spine1  2.09161 2.91195 -4.01765
HEad  15.9324 37.0612 -0.388506
LeftShoulder1  1.75919 -1.01083 -32.9237
LeftArm  11.0729 -13.3746 -38.7481
LeftForeArm  5.66247 0.138399 -18.8206
LeftHand  0.117875 1.02264 -3.28321
RightShoulder  12.6687 17.4728 52.7884
RightArm  35.1177 5.20364 21.4704
RightForeArm  9.36448 11.6968 14.0507
RightHand  0.285783 3.00915 3.72407
LeftUpLeg  -19.6116 6.02798 6.43686
LeftLeg  61.0273 0.411399 1.37055
LeftFoot  0.371371 0.638165 -6.24119
LeftToes  -6.27584e-011 -2.25241e-010 2.80627e-011
